<svg id="Layer_1" data-name="Layer 1" xmlns="http://www.w3.org/2000/svg" xmlns:xlink="http://www.w3.org/1999/xlink" viewBox="0 0 322.92 53.66"><defs><style>.cls-1{fill:#58427c;}.cls-2{clip-path:url(#clip-path);}.cls-3{clip-path:url(#clip-path-2);}.cls-4{clip-path:url(#clip-path-3);}.cls-5{clip-path:url(#clip-path-4);}.cls-6{clip-path:url(#clip-path-5);}.cls-7{clip-path:url(#clip-path-6);}.cls-8{clip-path:url(#clip-path-7);}.cls-9{clip-path:url(#clip-path-8);}.cls-10{clip-path:url(#clip-path-9);}.cls-11{clip-path:url(#clip-path-10);}</style><clipPath id="clip-path"><path class="cls-1" d="M67.66,25.7v-.15c7.33-.31,13.53-5.37,13.53-12.48C81.19,3.55,72.73,0,62.52,0H46.71L26.6,48.37,4.31,0H0V52.9H.83V1.51L24.94,53.66h.3L46.93,1.51V52.9H64.71c10.81,0,18.67-4.53,18.67-13.9C83.38,30.38,76.66,26,67.66,25.7ZM50.79.83H62.45c9.6,0,14.73,3.78,14.73,12.24,0,10-7.4,12.17-14.81,12.17H50.79ZM64.64,52.07H50.79v-26H62.52c10.13,0,16.86,3.48,16.86,13C79.38,49.13,73.48,52.07,64.64,52.07Z"/></clipPath><clipPath id="clip-path-2"><path class="cls-1" d="M134.06,31.68h-2.93V40h3.15c2.49,0,4.56-1.35,4.56-4.19C138.84,33.11,136.88,31.68,134.06,31.68Zm0,7.4h-1v-6.5h.89c1.81,0,2.9,1.13,2.9,3.21C136.82,38.18,135.73,39.08,134.06,39.08Z"/></clipPath><clipPath id="clip-path-3"><path class="cls-1" d="M183.7,37.5a2.08,2.08,0,0,0-2-1.48v0c1.34,0,2.6-.68,2.6-2.08,0-1.61-1.44-2.24-3.14-2.24h-3.83V40h1.89V36.43h1.08a1.27,1.27,0,0,1,1.43,1l.46,1.31a6.41,6.41,0,0,0,.56,1.23h2.13a4.84,4.84,0,0,1-.77-1.4Zm-3.24-2H179.2V32.6h1.26c1.19,0,1.83.5,1.83,1.44S181.62,35.51,180.46,35.51Z"/></clipPath><clipPath id="clip-path-4"><path class="cls-1" d="M193.61,31.65,189.91,40H191l.9-2.06h3.25L196.1,40h2l-3.75-8.33Zm-1.33,5.4,1.23-2.8,1.27,2.8Z"/></clipPath><clipPath id="clip-path-5"><path class="cls-1" d="M233.92,31.56a4.27,4.27,0,1,0,4.33,4.27A4.22,4.22,0,0,0,233.92,31.56Zm0,7.69c-1.51,0-2.21-1.25-2.21-3.42s.7-3.42,2.21-3.42,2.21,1.25,2.21,3.42S235.43,39.25,233.92,39.25Z"/></clipPath><clipPath id="clip-path-6"><path class="cls-1" d="M250.39,37.5a2.09,2.09,0,0,0-2-1.48v0c1.34,0,2.6-.68,2.6-2.08,0-1.61-1.44-2.24-3.15-2.24H244V40h1.9V36.43H247a1.26,1.26,0,0,1,1.42,1l.47,1.31a6.36,6.36,0,0,0,.55,1.23h2.14a4.84,4.84,0,0,1-.77-1.4Zm-3.24-2h-1.26V32.6h1.26c1.18,0,1.82.5,1.82,1.44S248.31,35.51,247.15,35.51Z"/></clipPath><clipPath id="clip-path-7"><path class="cls-1" d="M260,31.68h-2.93V40h3.16c2.49,0,4.55-1.35,4.55-4.19C264.78,33.11,262.82,31.68,260,31.68Zm0,7.4h-1v-6.5h.89c1.81,0,2.9,1.13,2.9,3.21C262.76,38.18,261.67,39.08,260,39.08Z"/></clipPath><clipPath id="clip-path-8"><path class="cls-1" d="M129.94,13.44h-.35l-4.22,9.86h.73L127.54,20h4.09l1.49,3.34h1.25l-4.31-9.71Zm-2.12,5.85,1.71-4,1.8,4Z"/></clipPath><clipPath id="clip-path-9"><path class="cls-1" d="M249.75,20.62A2.4,2.4,0,0,0,248,18.24a2.37,2.37,0,0,0,1.39-2.13c0-1.62-1.28-2.54-3.51-2.54h-3V23.3h3.42C248.44,23.3,249.75,22.3,249.75,20.62ZM244,14.24h1.82c1.57,0,2.3.6,2.3,1.87S247.41,18,245.83,18H244Zm2.21,8.38H244v-4h1.84c2.39,0,2.66,1.14,2.66,2C248.52,22.05,247.86,22.62,246.23,22.62Z"/></clipPath><clipPath id="clip-path-10"><path class="cls-1" d="M276.29,23.3h1.25l-4.3-9.71-.12-.15h-.35l-4.23,9.86h.74L270.71,20h4.1Zm-5.3-4,1.72-4,1.79,4Z"/></clipPath></defs><path class="cls-1" d="M67.66,25.7v-.15c7.33-.31,13.53-5.37,13.53-12.48C81.19,3.55,72.73,0,62.52,0H46.71L26.6,48.37,4.31,0H0V52.9H.83V1.51L24.94,53.66h.3L46.93,1.51V52.9H64.71c10.81,0,18.67-4.53,18.67-13.9C83.38,30.38,76.66,26,67.66,25.7ZM50.79.83H62.45c9.6,0,14.73,3.78,14.73,12.24,0,10-7.4,12.17-14.81,12.17H50.79ZM64.64,52.07H50.79v-26H62.52c10.13,0,16.86,3.48,16.86,13C79.38,49.13,73.48,52.07,64.64,52.07Z"/><g class="cls-2"><path class="cls-1" d="M62.52,26.07H50.79v26H64.64c8.84,0,14.74-2.94,14.74-13C79.38,29.55,72.65,26.07,62.52,26.07Z"/><path class="cls-1" d="M77.18,13.07C77.18,4.61,72.05.83,62.45.83H50.79V25.24H62.37C69.78,25.24,77.18,23.05,77.18,13.07Z"/></g><path class="cls-1" d="M100.8,32.56a2.68,2.68,0,0,1,2.37,1.51l.7-.77a3.68,3.68,0,0,0-3.31-1.74,4.26,4.26,0,0,0-4.41,4.36,4.09,4.09,0,0,0,4.33,4.18,3.75,3.75,0,0,0,3.39-1.86l-.69-.57a2.55,2.55,0,0,1-2.38,1.4c-1.42,0-2.54-1.19-2.54-3.28S99.24,32.56,100.8,32.56Z"/><rect class="cls-1" x="109.44" y="31.68" width="1.9" height="8.3"/><polygon class="cls-1" points="123.66 36.7 119.47 31.68 117.64 31.68 117.64 39.98 118.78 39.98 118.78 33.72 124.05 39.99 124.8 39.99 124.8 31.68 123.66 31.68 123.66 36.7"/><path class="cls-1" d="M134.06,31.68h-2.93V40h3.15c2.49,0,4.56-1.35,4.56-4.19C138.84,33.11,136.88,31.68,134.06,31.68Zm0,7.4h-1v-6.5h.89c1.81,0,2.9,1.13,2.9,3.21C136.82,38.18,135.73,39.08,134.06,39.08Z"/><g class="cls-3"><path class="cls-1" d="M133.92,32.58H133v6.5h1c1.67,0,2.76-.9,2.76-3.29C136.82,33.71,135.73,32.58,133.92,32.58Z"/></g><polygon class="cls-1" points="147.66 35.34 145.25 31.68 143.04 31.68 146.23 36.47 146.23 39.98 148.11 39.98 148.11 36.47 151.29 31.68 150.08 31.68 147.66 35.34"/><path class="cls-1" d="M168.69,32.56a2.67,2.67,0,0,1,2.37,1.51l.7-.77a3.68,3.68,0,0,0-3.31-1.74A4.26,4.26,0,0,0,164,35.92a4.1,4.1,0,0,0,4.33,4.18,3.75,3.75,0,0,0,3.39-1.86l-.69-.57a2.53,2.53,0,0,1-2.38,1.4c-1.41,0-2.54-1.19-2.54-3.28S167.14,32.56,168.69,32.56Z"/><path class="cls-1" d="M183.7,37.5a2.08,2.08,0,0,0-2-1.48v0c1.34,0,2.6-.68,2.6-2.08,0-1.61-1.44-2.24-3.14-2.24h-3.83V40h1.89V36.43h1.08a1.27,1.27,0,0,1,1.43,1l.46,1.31a6.41,6.41,0,0,0,.56,1.23h2.13a4.84,4.84,0,0,1-.77-1.4Zm-3.24-2H179.2V32.6h1.26c1.19,0,1.83.5,1.83,1.44S181.62,35.51,180.46,35.51Z"/><g class="cls-4"><path class="cls-1" d="M182.29,34c0-.94-.64-1.44-1.83-1.44H179.2v2.91h1.26C181.62,35.51,182.29,35.06,182.29,34Z"/></g><path class="cls-1" d="M193.61,31.65,189.91,40H191l.9-2.06h3.25L196.1,40h2l-3.75-8.33Zm-1.33,5.4,1.23-2.8,1.27,2.8Z"/><g class="cls-5"><polygon class="cls-1" points="192.28 37.05 194.78 37.05 193.51 34.25 192.28 37.05"/></g><polygon class="cls-1" points="210.37 37.21 208.46 31.68 206.54 31.68 207.32 33.78 206.02 37.35 203.87 31.68 201.92 31.68 205.25 40 205.96 40 207.82 35.08 209.67 40 210.38 40 213.53 31.68 212.41 31.68 210.37 37.21"/><polygon class="cls-1" points="218.96 39.98 220.86 39.98 220.86 36.24 223.91 36.24 223.91 35.27 220.86 35.27 220.86 32.65 224.94 32.65 224.94 31.68 218.96 31.68 218.96 39.98"/><path class="cls-1" d="M233.92,31.56a4.27,4.27,0,1,0,4.33,4.27A4.22,4.22,0,0,0,233.92,31.56Zm0,7.69c-1.51,0-2.21-1.25-2.21-3.42s.7-3.42,2.21-3.42,2.21,1.25,2.21,3.42S235.43,39.25,233.92,39.25Z"/><g class="cls-6"><path class="cls-1" d="M233.92,32.41c-1.51,0-2.21,1.25-2.21,3.42s.7,3.42,2.21,3.42,2.21-1.25,2.21-3.42S235.43,32.41,233.92,32.41Z"/></g><path class="cls-1" d="M250.39,37.5a2.09,2.09,0,0,0-2-1.48v0c1.34,0,2.6-.68,2.6-2.08,0-1.61-1.44-2.24-3.15-2.24H244V40h1.9V36.43H247a1.26,1.26,0,0,1,1.42,1l.47,1.31a6.36,6.36,0,0,0,.55,1.23h2.14a4.84,4.84,0,0,1-.77-1.4Zm-3.24-2h-1.26V32.6h1.26c1.18,0,1.82.5,1.82,1.44S248.31,35.51,247.15,35.51Z"/><g class="cls-7"><path class="cls-1" d="M249,34c0-.94-.64-1.44-1.82-1.44h-1.26v2.91h1.26C248.31,35.51,249,35.06,249,34Z"/></g><path class="cls-1" d="M260,31.68h-2.93V40h3.16c2.49,0,4.55-1.35,4.55-4.19C264.78,33.11,262.82,31.68,260,31.68Zm0,7.4h-1v-6.5h.89c1.81,0,2.9,1.13,2.9,3.21C262.76,38.18,261.67,39.08,260,39.08Z"/><g class="cls-8"><path class="cls-1" d="M259.86,32.58H259v6.5h1c1.67,0,2.76-.9,2.76-3.29C262.76,33.71,261.67,32.58,259.86,32.58Z"/></g><polygon class="cls-1" points="104.97 13.57 104.82 13.57 101.49 21.58 97.8 13.57 97.07 13.57 96.76 13.57 96.61 13.57 96.61 23.3 97.29 23.3 97.29 15.3 101.05 23.43 101.45 23.43 104.78 15.43 104.78 23.3 105.98 23.3 105.98 13.57 105.31 13.57 104.97 13.57"/><polygon class="cls-1" points="114.43 18.65 118.31 18.65 118.31 17.97 114.43 17.97 114.43 14.24 119.57 14.24 119.57 13.57 113.23 13.57 113.23 23.3 119.7 23.3 119.7 22.62 114.43 22.62 114.43 18.65"/><path class="cls-1" d="M129.94,13.44h-.35l-4.22,9.86h.73L127.54,20h4.09l1.49,3.34h1.25l-4.31-9.71Zm-2.12,5.85,1.71-4,1.8,4Z"/><g class="cls-9"><polygon class="cls-1" points="127.82 19.29 131.33 19.29 129.53 15.29 127.82 19.29"/></g><polygon class="cls-1" points="148.26 23.43 148.26 13.57 147.59 13.57 147.59 21.34 140.89 13.53 140.76 13.44 140.37 13.44 140.37 23.3 141.05 23.3 141.05 15.51 147.82 23.43 148.26 23.43"/><rect class="cls-1" x="155.51" y="13.57" width="1.2" height="9.73"/><polygon class="cls-1" points="171.14 21.34 164.45 13.53 164.32 13.44 163.93 13.44 163.93 23.3 164.6 23.3 164.6 15.51 171.38 23.43 171.82 23.43 171.82 13.57 171.14 13.57 171.14 21.34"/><path class="cls-1" d="M186.05,20a2.71,2.71,0,0,1-2.9,2.77c-2.22,0-3.49-1.58-3.49-4.34s1.33-4.33,3.56-4.33a3.25,3.25,0,0,1,3.2,2.06l.1.25.6-.27L187,15.9a3.84,3.84,0,0,0-3.81-2.46,4.86,4.86,0,0,0-4.83,5,4.78,4.78,0,0,0,4.76,5,3.54,3.54,0,0,0,3.07-1.59l.53,1.59h.51V18.66h-1.21Z"/><polygon class="cls-1" points="200.19 14.24 200.19 13.57 194.12 13.57 194.12 23.3 195.32 23.3 195.32 18.78 199.2 18.78 199.2 18.1 195.32 18.1 195.32 14.24 200.19 14.24"/><path class="cls-1" d="M206.33,13.57v5.94c0,2.46,1.52,3.92,4.06,3.92a3.62,3.62,0,0,0,3.74-3.91V13.57h-.68v5.92a2.85,2.85,0,0,1-3.06,3.15c-1.9,0-2.86-1.11-2.86-3.3V13.57Z"/><polygon class="cls-1" points="222.45 13.57 221.25 13.57 221.25 23.3 227.46 23.3 227.46 22.62 222.45 22.62 222.45 13.57"/><path class="cls-1" d="M249.75,20.62A2.4,2.4,0,0,0,248,18.24a2.37,2.37,0,0,0,1.39-2.13c0-1.62-1.28-2.54-3.51-2.54h-3V23.3h3.42C248.44,23.3,249.75,22.3,249.75,20.62ZM244,14.24h1.82c1.57,0,2.3.6,2.3,1.87S247.41,18,245.83,18H244Zm2.21,8.38H244v-4h1.84c2.39,0,2.66,1.14,2.66,2C248.52,22.05,247.86,22.62,246.23,22.62Z"/><g class="cls-10"><path class="cls-1" d="M248.14,16.11c0-1.27-.73-1.87-2.3-1.87H244V18h1.81C247.41,18,248.14,17.37,248.14,16.11Z"/><path class="cls-1" d="M245.86,18.63H244v4h2.21c1.63,0,2.29-.57,2.29-2C248.52,19.77,248.25,18.63,245.86,18.63Z"/></g><polygon class="cls-1" points="262.88 22.62 257.61 22.62 257.61 18.65 261.49 18.65 261.49 17.97 257.61 17.97 257.61 14.24 262.75 14.24 262.75 13.57 256.41 13.57 256.41 23.3 262.88 23.3 262.88 22.62"/><path class="cls-1" d="M276.29,23.3h1.25l-4.3-9.71-.12-.15h-.35l-4.23,9.86h.74L270.71,20h4.1Zm-5.3-4,1.72-4,1.79,4Z"/><g class="cls-11"><polygon class="cls-1" points="270.99 19.29 274.5 19.29 272.71 15.29 270.99 19.29"/></g><path class="cls-1" d="M290.74,19.52V13.57h-.68v5.92A2.85,2.85,0,0,1,287,22.64c-1.9,0-2.86-1.11-2.86-3.3V13.57h-1.2v5.94c0,2.46,1.52,3.92,4.06,3.92A3.62,3.62,0,0,0,290.74,19.52Z"/><polygon class="cls-1" points="296.81 14.24 300.53 14.24 300.53 23.3 301.72 23.3 301.72 14.24 305.46 14.24 305.46 13.57 296.81 13.57 296.81 14.24"/><polygon class="cls-1" points="315.39 18.55 312.26 13.57 310.88 13.57 314.5 19.31 314.5 23.3 315.7 23.3 315.7 19.31 319.3 13.57 318.52 13.57 315.39 18.55"/><path class="cls-1" d="M321.43,16.54a1.49,1.49,0,1,1,1.49-1.49A1.47,1.47,0,0,1,321.43,16.54Zm0-2.8a1.31,1.31,0,1,0,1.3,1.31A1.29,1.29,0,0,0,321.43,13.74Zm-.26,2.11h-.39V14.22h.76c.33,0,.61.13.61.43s-.24.41-.51.42h0a.42.42,0,0,1,.4.29l.07.2a1.08,1.08,0,0,0,.15.28h-.44a1.28,1.28,0,0,1-.11-.24l-.09-.27a.23.23,0,0,0-.26-.18h-.19Zm0-.88h.22c.23,0,.35-.09.35-.28s-.12-.28-.35-.28h-.22Z"/></svg>